<svg version="1.0" xmlns="http://www.w3.org/2000/svg"
 viewBox="0 0 400.000000 400.000000"
 preserveAspectRatio="xMidYMid meet">
<g transform="translate(0.000000,400.000000) scale(0.100000,-0.100000)"
fill="#b3b1b1" stroke="none">
<path d="M1745 3680 c-297 -49 -520 -143 -763 -322 -216 -159 -409 -396 -521
-640 -244 -531 -208 -1125 100 -1621 383 -617 1126 -921 1839 -751 304 72 597
240 816 466 317 328 484 738 484 1188 0 407 -146 798 -413 1111 -225 263 -571
471 -902 544 -222 48 -446 57 -640 25z m525 -234 c141 -28 249 -64 377 -127
68 -33 128 -65 135 -72 7 -7 31 -24 54 -38 22 -15 61 -45 86 -66 l46 -40 -277
-277 c-270 -269 -277 -275 -279 -244 -4 56 -21 104 -43 124 -19 17 -41 19
-287 20 -204 1 -273 -2 -294 -12 -29 -15 -45 -52 -54 -129 -3 -27 -8 -52 -11
-55 -2 -3 -116 -5 -251 -6 -136 -1 -256 -4 -268 -8 -32 -10 -43 -43 -46 -131
l-3 -80 324 -3 325 -2 75 32 c72 30 83 32 198 33 67 0 125 -3 129 -8 4 -4 -14
-29 -40 -56 -46 -47 -51 -49 -126 -59 -97 -12 -161 -42 -220 -101 -59 -59 -90
-127 -104 -224 -10 -73 -14 -81 -55 -123 -25 -24 -48 -44 -52 -44 -22 0 -25
195 -4 262 19 61 44 119 66 149 l19 26 -38 7 c-20 3 -139 6 -263 6 l-226 0 -5
-67 c-2 -38 -3 -241 -2 -452 l3 -385 -77 -80 c-42 -44 -87 -89 -100 -99 -12
-10 -37 -35 -56 -54 l-33 -35 -65 86 c-152 203 -242 417 -283 669 -19 122 -12
400 13 513 67 300 191 524 406 740 243 242 504 371 866 427 66 10 361 -1 440
-17z m972 -659 c95 -148 165 -319 204 -497 19 -89 28 -413 13 -505 -103 -643
-593 -1136 -1234 -1240 -147 -24 -565 -4 -565 27 0 5 -4 7 -9 4 -5 -3 -22 -2
-37 3 -16 5 -55 17 -86 27 -32 9 -58 21 -58 26 0 5 -4 7 -9 4 -13 -8 -195 84
-264 135 l-59 41 209 210 c114 115 220 216 235 224 23 12 129 14 686 14 363 0
666 2 674 5 38 15 41 47 39 475 0 228 -1 424 -1 436 0 20 -5 20 -211 20 -116
-1 -215 2 -221 5 -10 6 57 89 70 88 4 -1 9 0 12 1 3 1 81 4 174 6 94 2 172 7
175 10 3 3 5 40 5 84 0 91 -13 114 -76 130 -21 6 -38 14 -38 17 0 8 312 323
320 323 3 0 26 -33 52 -73z m-733 -699 c33 -80 47 -204 33 -289 -26 -150 -134
-288 -278 -355 -42 -19 -83 -33 -90 -30 -7 3 -16 1 -19 -4 -9 -14 -156 -10
-210 6 -27 9 -72 25 -98 37 l-48 22 44 43 c41 41 47 43 68 31 13 -7 29 -13 34
-14 6 -1 33 -5 60 -10 62 -11 122 -9 172 4 21 6 42 10 47 10 5 0 12 3 15 8 3
4 24 21 46 38 53 39 70 60 105 127 51 98 55 208 10 323 -11 28 -9 32 30 67 23
21 45 38 50 38 4 0 17 -24 29 -52z"/>
<path d="M1335 2660 l-60 -5 -3 -37 c-4 -43 -5 -42 113 -40 78 2 85 6 85 41 0
30 -5 34 -65 44 -5 1 -37 0 -70 -3z"/>
</g>
</svg>
