<svg width="79" height="65" viewBox="0 0 79 65" fill="none" xmlns="http://www.w3.org/2000/svg">
<path d="M38.5186 54.5814C47.1944 54.5814 54.2276 47.4994 54.2276 38.7634C54.2276 30.0273 47.1944 22.9453 38.5186 22.9453C29.8427 22.9453 22.8096 30.0273 22.8096 38.7634C22.8096 47.4994 29.8427 54.5814 38.5186 54.5814Z" fill="#F2F2F2"/>
<path d="M52.9131 55.2442H77.9997V21.082H52.9131L58.4082 29.0813L60.2001 37.1407L58.468 47.5457L52.9131 55.2442Z" fill="#E6E6E6"/>
<path d="M23.645 55.2442H0.828125V21.082H23.645L17.672 30.224L16.1787 39.1254L18.2693 47.7261L23.645 55.2442Z" fill="#E6E6E6"/>
<path d="M77.8787 38.4038V59.274C77.8787 61.5595 76.0271 63.3638 73.8171 63.3638H4.94836C2.67862 63.3638 0.886719 61.4994 0.886719 59.274V14.5264C0.886719 12.2409 2.73835 10.4365 4.64971 10.4365H26.4512" stroke="#BABFC3" stroke-width="1.6" stroke-miterlimit="10" stroke-linecap="round"/>
<path d="M51.1211 10.4365H73.8185C76.0882 10.4365 77.8801 12.301 77.8801 14.5264V23.3676V26.5553V26.6154V26.7959V27.5778V28.3596" stroke="#BABFC3" stroke-width="1.6" stroke-miterlimit="10" stroke-linecap="round" stroke-linejoin="round"/>
<path d="M26.5127 10.4356L30.6938 0.8125H46.8209L51.002 10.4356" stroke="#BABFC3" stroke-width="1.6" stroke-miterlimit="10" stroke-linecap="round" stroke-linejoin="round"/>
<path d="M38.4575 54.3416C47.0344 54.3416 53.9874 47.3404 53.9874 38.704C53.9874 30.0676 47.0344 23.0664 38.4575 23.0664C29.8807 23.0664 22.9277 30.0676 22.9277 38.704C22.9277 47.3404 29.8807 54.3416 38.4575 54.3416Z" stroke="#BABFC3" stroke-width="1.6" stroke-miterlimit="10"/>
<path d="M59.9623 38.403C59.9623 50.5522 50.2263 60.3558 38.1608 60.3558C26.0954 60.3558 16.3594 50.5522 16.3594 38.403C16.3594 26.2538 26.0954 16.4502 38.1608 16.4502C43.4171 16.4502 48.2552 18.3147 52.0182 21.4422C56.9161 25.4719 59.9623 31.6067 59.9623 38.403Z" stroke="#BABFC3" stroke-width="1.6" stroke-miterlimit="10"/>
<path d="M51.4785 20.9609H76.0276H77.5805" stroke="#BABFC3" stroke-width="1.6" stroke-miterlimit="10"/>
<path d="M24.72 21.0225H1.24609" stroke="#BABFC3" stroke-width="1.6" stroke-miterlimit="10"/>
<path d="M29.1396 38.7043C29.1396 33.7123 33.1416 29.6826 38.0992 29.6826" stroke="#BABFC3" stroke-width="1.6" stroke-miterlimit="10"/>
<path d="M0.768555 55.5439H24.4216" stroke="#BABFC3" stroke-width="1.6" stroke-miterlimit="10"/>
<path d="M77.7581 55.4248H52.0742" stroke="#BABFC3" stroke-width="1.6" stroke-miterlimit="10"/>
<path d="M62.8867 15.4883H72.6824" stroke="#BABFC3" stroke-width="1.6" stroke-miterlimit="10"/>
<path d="M58.7666 10.3151V6.04486C58.7666 5.86443 58.8861 5.74414 59.0653 5.74414H65.9939C66.1731 5.74414 66.2926 5.86443 66.2926 6.04486V10.4956" stroke="#BABFC3" stroke-width="1.6" stroke-miterlimit="10"/>
<path d="M21.1355 10.0749V5.80463C21.1355 5.6242 21.0161 5.50391 20.8369 5.50391H13.8485C13.6693 5.50391 13.5498 5.6242 13.5498 5.80463V10.2553" stroke="#BABFC3" stroke-width="1.6" stroke-miterlimit="10"/>
<path d="M35.291 7.9082H42.2794" stroke="#BABFC3" stroke-width="1.6" stroke-miterlimit="10"/>
<path d="M77.8799 31.7871V34.7943" stroke="#BABFC3" stroke-width="1.6" stroke-miterlimit="10" stroke-linecap="round"/>
</svg>
