<svg version="1.1" xmlns="http://www.w3.org/2000/svg" xmlns:xlink="http://www.w3.org/1999/xlink">
  <symbol viewBox="0 0 80 80" id= "logo">
    <path d="M25.4 41.3l-3.7-14.1h-5v25.5h3.9V37.1L23.8 49h3.4l3.1-11.9v15.7h3.9V27.2h-5l-3.8 14.1zm21.9.6l-6.6-6.4c-.5-.5-.8-.9-1-1.3-.1-.4-.2-1-.2-1.8 0-.7.2-1.2.6-1.5.4-.4 1.2-.6 2.1-.6 1 0 1.7.2 2.1.6.4.4.6.9.6 1.6v4H49v-3.8c0-2.7-1.1-5.9-6.5-5.9-2.2 0-3.9.5-5 1.5-1.2 1-1.7 2.5-1.7 4.4 0 1.2.2 2.2.5 3 .3.8.9 1.6 1.7 2.5l6.4 6.4c.5.5.8 1 1 1.4.2.4.2 1.1.2 1.8 0 .6-.2 1.1-.7 1.5-.5.4-1.3.6-2.3.6-1.1 0-1.8-.2-2.3-.6-.4-.4-.7-.9-.7-1.6v-4h-3.9v3.8c0 4.9 3.7 5.9 6.8 5.9 3.1 0 6.8-1 6.8-5.9 0-1.2-.1-2.2-.4-3-.3-.9-.8-1.7-1.6-2.6zm2.5-14.7v3.5h4.8v22h3.9v-22h4.8v-3.5H49.8z"></path>
  </symbol>
</svg>
